<svg xmlns="http://www.w3.org/2000/svg" xmlns:xlink="http://www.w3.org/1999/xlink" width="20" height="20" preserveAspectRatio="xMidYMid meet" viewBox="0 0 20 20" style="-ms-transform: rotate(360deg); -webkit-transform: rotate(360deg); transform: rotate(360deg);"><path d="M12 2l4 4v12H4V2h8zM5 3v1h6V3H5zm7 3h3l-3-3v3zM5 5v1h6V5H5zm10 3V7H5v1h10zM5 9v1h4V9H5zm10 3V9h-5v3h5zM5 11v1h4v-1H5zm10 3v-1H5v1h10zm-3 2v-1H5v1h7z" fill="#626262"/><rect x="0" y="0" width="20" height="20" fill="rgba(0, 0, 0, 0)" /></svg>