<svg xmlns="http://www.w3.org/2000/svg" xmlns:xlink="http://www.w3.org/1999/xlink" width="20" height="20" preserveAspectRatio="xMidYMid meet" viewBox="0 0 36 36" style="-ms-transform: rotate(360deg); -webkit-transform: rotate(360deg); transform: rotate(360deg);"><g data-name="Layer 3"><path d="M16.43 16.69a7 7 0 1 1 7-7a7 7 0 0 1-7 7zm0-11.92a5 5 0 1 0 5 5a5 5 0 0 0-5-5z" fill="#626262"/><path d="M22 17.9a25.41 25.41 0 0 0-16.12 1.67a4.06 4.06 0 0 0-2.31 3.68v5.95a1 1 0 1 0 2 0v-5.95a2 2 0 0 1 1.16-1.86a22.91 22.91 0 0 1 9.7-2.11a23.58 23.58 0 0 1 5.57.66z" fill="#626262"/><path d="M22.14 27.41h6.14v1.4h-6.14z" fill="#626262"/><path d="M33.17 21.47H28v2h4.17v8.37H18v-8.37h6.3v.42a1 1 0 0 0 2 0V20a1 1 0 0 0-2 0v1.47H17a1 1 0 0 0-1 1v10.37a1 1 0 0 0 1 1h16.17a1 1 0 0 0 1-1V22.47a1 1 0 0 0-1-1z" fill="#626262"/></g><rect x="0" y="0" width="36" height="36" fill="rgba(0, 0, 0, 0)" /></svg>