<svg xmlns="http://www.w3.org/2000/svg" xmlns:xlink="http://www.w3.org/1999/xlink" width="512" height="512" preserveAspectRatio="xMidYMid meet" viewBox="0 0 512 512" style="-ms-transform: rotate(360deg); -webkit-transform: rotate(360deg); transform: rotate(360deg);"><path fill="#626262" d="M459.26 96L328 225.7V96h-34.525L168 223.267V16H16v480h480V96zM464 464H48V48h88v216h36.778L296 139.018V264h38.764L464 136.3z"/><path fill="#626262" d="M136 328v8h32v-32h-32v24z"/><path fill="#626262" d="M136 376h32v32h-32z"/><path fill="#626262" d="M216 328v8h32v-32h-32v24z"/><path fill="#626262" d="M216 376h32v32h-32z"/><path fill="#626262" d="M296 328v8h32v-32h-32v24z"/><path fill="#626262" d="M296 376h32v32h-32z"/><path fill="#626262" d="M376 304h32v32h-32z"/><path fill="#626262" d="M376 376h32v32h-32z"/><rect x="0" y="0" width="512" height="512" fill="rgba(0, 0, 0, 0)" /></svg>