<svg xmlns="http://www.w3.org/2000/svg" xmlns:xlink="http://www.w3.org/1999/xlink" width="24" height="24" preserveAspectRatio="xMidYMid meet" viewBox="0 0 32 32" style="-ms-transform: rotate(360deg); -webkit-transform: rotate(360deg); transform: rotate(360deg);"><path d="M8 18h6v2H8z" fill="#626262"/><path d="M8 22h10v2H8z" fill="#626262"/><path d="M26 4H6a2.002 2.002 0 0 0-2 2v20a2.002 2.002 0 0 0 2 2h20a2.002 2.002 0 0 0 2-2V6a2.002 2.002 0 0 0-2-2zm-8 2v4h-4V6zM6 26V6h6v6h8V6h6l.001 20z" fill="#626262"/><rect x="0" y="0" width="32" height="32" fill="rgba(0, 0, 0, 0)" /></svg>