<svg xmlns="http://www.w3.org/2000/svg" xmlns:xlink="http://www.w3.org/1999/xlink" width="20" height="20" preserveAspectRatio="xMidYMid meet" viewBox="0 0 24 24" style="-ms-transform: rotate(360deg); -webkit-transform: rotate(360deg); transform: rotate(360deg);"><path d="M14.5 7.3l-1 .7V7h-3v3l-1 .7v1l5-3.3V7.3m0 4l-1 .7v-2l-3 2v2l-1 .7v1l5-3.3v-1.1m0 4l-1 .7v-2l-3 2v2l-1 .7v1l5-3.3v-1.1M8 3S7 3 7 4l3 2h4l3-2s0-1-1-1H8m5.5 15v3h-3v-1l3-2z" fill="#626262"/><rect x="0" y="0" width="24" height="24" fill="rgba(0, 0, 0, 0)" /></svg>