<svg xmlns="http://www.w3.org/2000/svg" xmlns:xlink="http://www.w3.org/1999/xlink" width="24" height="24" preserveAspectRatio="xMidYMid meet" viewBox="0 0 24 24" style="-ms-transform: rotate(360deg); -webkit-transform: rotate(360deg); transform: rotate(360deg);"><path d="M9 13h10a1 1 0 0 1 0 2H9a1 1 0 0 1 0-2zm0 4h10a1 1 0 0 1 0 2H9a1 1 0 0 1 0-2zm6-8h4a1 1 0 0 1 0 2h-4a1 1 0 0 1 0-2zm-7.257 1.914L4 7.172l1.414-1.415l2.329 2.329L12.828 3l1.415 1.414l-6.5 6.5z" fill="#626262" fill-rule="evenodd"/><rect x="0" y="0" width="24" height="24" fill="rgba(0, 0, 0, 0)" /></svg>