<svg width="152" height="71" viewBox="0 0 152 71" fill="none" xmlns="http://www.w3.org/2000/svg">
<path d="M6.37083 70.1199H5.24302V64.1566H3.21094V63.178H8.40292V64.1566H6.37083V70.1199Z" fill="#1A1A18"/>
<path d="M13.7067 66.6439C13.7067 67.5002 13.8795 68.1424 14.2249 68.5909C14.5704 69.0292 15.0784 69.2535 15.749 69.2535C16.4196 69.2535 16.9276 69.0394 17.2629 68.6011C17.6084 68.1628 17.7709 67.5104 17.7709 66.6541C17.7709 65.808 17.5982 65.1556 17.2629 64.7173C16.9276 64.279 16.4196 64.0547 15.749 64.0547C15.0682 64.0547 14.5602 64.279 14.2148 64.7173C13.8795 65.1454 13.7067 65.7876 13.7067 66.6439ZM18.9699 66.6439C18.9699 67.7754 18.6854 68.652 18.1265 69.2739C17.5677 69.8957 16.765 70.2117 15.7388 70.2117C14.6923 70.2117 13.8998 69.8957 13.341 69.2739C12.7821 68.652 12.5078 67.7652 12.5078 66.6235C12.5078 65.4818 12.7923 64.595 13.3511 63.9833C13.91 63.3717 14.7126 63.0659 15.7592 63.0659C16.7854 63.0659 17.5779 63.3819 18.1367 64.0037C18.6955 64.6357 18.9699 65.5124 18.9699 66.6439Z" fill="#1A1A18"/>
<path d="M28.8969 70.1199H27.7589V67.3472C27.3322 67.5001 26.9563 67.6122 26.621 67.6734C26.2857 67.7447 25.9504 67.7753 25.6151 67.7753C24.9648 67.7753 24.4568 67.6224 24.1113 67.3166C23.7557 67.0108 23.583 66.5725 23.583 66.0016V63.178H24.721V65.7366C24.721 66.0934 24.8124 66.3686 24.9851 66.5419C25.1579 66.7152 25.4525 66.8069 25.8589 66.8069C26.1536 66.8069 26.4482 66.7763 26.7327 66.7254C27.0172 66.6744 27.3627 66.5725 27.7589 66.44V63.1882H28.8969V70.1199Z" fill="#1A1A18"/>
<path d="M39.3922 70.1199H38.0714L35.2264 66.603V70.1199H34.0986V63.178H35.2264V66.5419L38.0206 63.178H39.2601L36.466 66.5317L39.3922 70.1199Z" fill="#1A1A18"/>
<path d="M46.9818 67.2147L46.3315 65.3289C46.2807 65.2066 46.2198 65.0027 46.1385 64.7275C46.0572 64.4523 45.9962 64.2586 45.9657 64.1261C45.8845 64.5134 45.7524 64.9415 45.5898 65.4003L44.97 67.2045H46.9818V67.2147ZM47.9673 70.1199L47.2764 68.1933H44.6347L43.9642 70.1199H42.7754L45.3561 63.1475H46.5855L49.1663 70.1199H47.9673Z" fill="#1A1A18"/>
<path d="M70.5543 70.1199H69.2233L66.3886 66.603V70.1199H65.2607V63.178H66.3886V66.5419L69.1827 63.178H70.4121L67.6281 66.5317L70.5543 70.1199Z" fill="#1A1A18"/>
<path d="M75.9798 66.5725H76.5792C77.1584 66.5725 77.5851 66.4705 77.8493 66.2667C78.1236 66.0628 78.2557 65.7468 78.2557 65.3186C78.2557 64.9211 78.1338 64.6255 77.8899 64.4216C77.6461 64.2279 77.2701 64.126 76.752 64.126H75.9696V66.5725H75.9798ZM79.414 65.2779C79.414 66.0016 79.1803 66.5623 78.7028 66.9394C78.2354 67.3268 77.5546 67.5205 76.691 67.5205H75.9696V70.1199H74.8418V63.178H76.8332C77.6969 63.178 78.337 63.3513 78.7739 63.7081C79.2006 64.0648 79.414 64.5847 79.414 65.2779Z" fill="#1A1A18"/>
<path d="M88.0813 70.1199H84.1797V63.178H88.0813V64.1362H85.3075V66.0322H87.9086V66.9802H85.3075V69.1617H88.0813V70.1199Z" fill="#1A1A18"/>
<path d="M98.2618 70.1199H97.134V64.1566H94.0858V70.1199H92.958V63.178H98.2618V70.1199Z" fill="#1A1A18"/>
<path d="M108.646 70.12H107.518V64.1567H105.557C105.313 66.1852 105.11 67.5614 104.957 68.2953C104.805 69.0293 104.602 69.539 104.327 69.8244C104.053 70.1098 103.697 70.2525 103.25 70.2423C103.017 70.2423 102.803 70.2016 102.59 70.12V69.172C102.773 69.2535 102.945 69.2943 103.118 69.2943C103.342 69.2943 103.525 69.1618 103.647 68.8866C103.779 68.6113 103.911 68.0099 104.063 67.0721C104.216 66.1343 104.398 64.8397 104.612 63.1985H108.646V70.12Z" fill="#1A1A18"/>
<path d="M117.759 70.1199H113.857V63.178H117.759V64.1362H114.985V66.0322H117.586V66.9802H114.985V69.1617H117.759V70.1199Z" fill="#1A1A18"/>
<path d="M128.073 70.1199H126.945V66.9904H123.765V70.1199H122.637V63.178H123.765V66.022H126.945V63.178H128.073V70.1199Z" fill="#1A1A18"/>
<path d="M133.274 63.178H134.311V66.7865C134.311 67.1637 134.301 67.5409 134.28 67.9282C134.26 68.3156 134.25 68.5704 134.24 68.7131H134.28L137.806 63.1882H139.127V70.1301H138.09V66.5521C138.09 66.0016 138.121 65.339 138.182 64.5541H138.141L134.605 70.1301H133.285V63.178H133.274Z" fill="#1A1A18"/>
<path d="M147.651 64.1261H146.757C146.28 64.1261 145.914 64.2076 145.66 64.3809C145.406 64.5542 145.284 64.8294 145.284 65.2066C145.284 65.5838 145.406 65.8692 145.65 66.0832C145.894 66.2871 146.28 66.3992 146.788 66.3992H147.651V64.1261ZM146.503 67.3371L144.796 70.1199H143.506L145.446 67.0822C144.563 66.7764 144.126 66.1342 144.126 65.1454C144.126 64.5134 144.349 64.0241 144.786 63.6877C145.223 63.3513 145.863 63.1882 146.717 63.1882H148.789V70.1301H147.661V67.3473H146.503V67.3371Z" fill="#1A1A18"/>
<path d="M28.4187 38.8663C28.4187 43.8306 27.1893 47.6532 24.7406 50.324C22.292 52.9947 18.7765 54.3301 14.2043 54.3301C9.63209 54.3301 6.11658 52.9947 3.66791 50.324C1.22941 47.6532 0 43.8204 0 38.8255C0 33.8306 1.22941 30.0182 3.68824 27.378C6.14706 24.748 9.66257 23.4229 14.2551 23.4229C18.8374 23.4229 22.3529 24.748 24.7813 27.4086C27.1995 30.0691 28.4187 33.8816 28.4187 38.8663ZM6.63476 38.8663C6.63476 42.22 7.26471 44.748 8.53476 46.4402C9.80481 48.1323 11.6947 48.9886 14.2144 48.9886C19.2642 48.9886 21.7941 45.6145 21.7941 38.8663C21.7941 32.1079 19.2845 28.7236 14.2652 28.7236C11.7455 28.7236 9.84545 29.5798 8.56524 31.2822C7.27487 32.9845 6.63476 35.5126 6.63476 38.8663Z" fill="#1A1A18"/>
<path d="M60.5861 45.5737C60.5861 48.2852 59.6209 50.4157 57.6802 51.9753C55.7396 53.5349 53.0471 54.3198 49.5824 54.3198C46.392 54.3198 43.5776 53.7184 41.1289 52.5156V46.6032C43.1407 47.5105 44.8476 48.1425 46.2396 48.5094C47.6316 48.8764 48.9118 49.0599 50.0701 49.0599C51.4621 49.0599 52.5289 48.7949 53.2605 48.2546C54.0022 47.7245 54.3781 46.9294 54.3781 45.8693C54.3781 45.278 54.2155 44.7582 53.8904 44.2994C53.5653 43.8407 53.0877 43.4024 52.4476 42.9743C51.8177 42.5461 50.5273 41.8734 48.5765 40.9457C46.7578 40.0793 45.3861 39.2536 44.4717 38.4585C43.5573 37.6634 42.8257 36.7459 42.2872 35.6858C41.7385 34.6358 41.4744 33.4024 41.4744 31.9957C41.4744 29.3453 42.3685 27.2556 44.1567 25.7368C45.945 24.2179 48.4241 23.4534 51.5738 23.4534C53.1284 23.4534 54.6016 23.6369 56.0139 24.0038C57.4262 24.3708 58.8995 24.8907 60.4337 25.5635L58.3915 30.5074C56.7963 29.855 55.4856 29.3963 54.4391 29.1312C53.3925 28.8662 52.3765 28.7439 51.3706 28.7439C50.1717 28.7439 49.2573 29.0293 48.6171 29.59C47.977 30.1506 47.6621 30.8846 47.6621 31.7816C47.6621 32.3423 47.7941 32.8316 48.0482 33.2495C48.3022 33.6674 48.7187 34.0752 49.2877 34.4625C49.8567 34.8499 51.1877 35.5533 53.3011 36.5624C56.0952 37.908 58.0054 39.2434 59.0417 40.5991C60.0679 41.9651 60.5861 43.6165 60.5861 45.5737Z" fill="#1A1A18"/>
<path d="M80.5819 53.912H74.3535V23.9019H91.4637V29.1108H80.5819V36.858H90.7118V42.0466H80.5819V53.912Z" fill="#1A1A18"/>
<path d="M111.998 23.9019H105.668V53.912H111.998V23.9019Z" fill="#1A1A18"/>
<path d="M152 53.912H144.776L137.826 42.5563L130.886 53.912H124.109L134.016 38.438L124.749 23.9019H131.73L138.161 34.697L144.471 23.9019H151.288L141.91 38.7846L152 53.912Z" fill="#1A1A18"/>
<path d="M108.828 5.31882C106.654 5.31882 104.886 7.09252 104.886 9.28417C104.886 11.4656 106.654 13.2495 108.828 13.2495C111.003 13.2495 112.771 11.4758 112.771 9.28417C112.76 7.10272 110.992 5.31882 108.828 5.31882ZM108.828 18.3362C103.86 18.3362 99.8262 14.2791 99.8262 9.28417C99.8262 4.28926 103.87 0.232178 108.828 0.232178C113.797 0.232178 117.83 4.28926 117.83 9.28417C117.83 14.2791 113.787 18.3362 108.828 18.3362Z" fill="#E30235"/>
</svg>
