<svg xmlns="http://www.w3.org/2000/svg" xmlns:xlink="http://www.w3.org/1999/xlink" width="24" height="24" preserveAspectRatio="xMidYMid meet" viewBox="0 0 24 24" style="-ms-transform: rotate(360deg); -webkit-transform: rotate(360deg); transform: rotate(360deg);"><path d="M5 2c-1.103 0-2 .897-2 2v12c0 1.103.897 2 2 2h3.586L12 21.414L15.414 18H19c1.103 0 2-.897 2-2V4c0-1.103-.897-2-2-2H5zm14 14h-4.414L12 18.586L9.414 16H5V4h14v12z" fill="#626262"/><path d="M7 7h10v2H7zm0 4h7v2H7z" fill="#626262"/><rect x="0" y="0" width="24" height="24" fill="rgba(0, 0, 0, 0)" /></svg>