<svg xmlns="http://www.w3.org/2000/svg" xmlns:xlink="http://www.w3.org/1999/xlink" width="16" height="16" preserveAspectRatio="xMidYMid meet" viewBox="0 0 16 16" style="-ms-transform: rotate(360deg); -webkit-transform: rotate(360deg); transform: rotate(360deg);"><g fill="#626262"><path fill-rule="evenodd" d="M8 5.5a.5.5 0 0 1 .5.5v5a.5.5 0 0 1-1 0V6a.5.5 0 0 1 .5-.5z" clip-rule="evenodd"/><path fill-rule="evenodd" d="M7.646 4.646a.5.5 0 0 1 .708 0l3 3a.5.5 0 0 1-.708.708L8 5.707L5.354 8.354a.5.5 0 1 1-.708-.708l3-3z" clip-rule="evenodd"/></g><rect x="0" y="0" width="16" height="16" fill="rgba(0, 0, 0, 0)" /></svg>